<svg width="40" height="40" viewBox="0 0 40 40" fill="none" xmlns="http://www.w3.org/2000/svg">
<path d="M20 36.6667C29.2047 36.6667 36.6667 29.2048 36.6667 20C36.6667 10.7953 29.2047 3.33337 20 3.33337C10.7952 3.33337 3.33333 10.7953 3.33333 20C3.33333 29.2048 10.7952 36.6667 20 36.6667Z" stroke="#3C64B1" stroke-width="2" stroke-linecap="round" stroke-linejoin="round"/>
<path d="M20 26.6667C23.6819 26.6667 26.6667 23.6819 26.6667 20C26.6667 16.3181 23.6819 13.3334 20 13.3334C16.3181 13.3334 13.3333 16.3181 13.3333 20C13.3333 23.6819 16.3181 26.6667 20 26.6667Z" stroke="#3C64B1" stroke-width="2" stroke-linecap="round" stroke-linejoin="round"/>
<path d="M8.21661 8.21667L15.2833 15.2833" stroke="#3C64B1" stroke-width="2" stroke-linecap="round" stroke-linejoin="round"/>
<path d="M24.7167 24.7167L31.7834 31.7833" stroke="#3C64B1" stroke-width="2" stroke-linecap="round" stroke-linejoin="round"/>
<path d="M24.7167 15.2833L31.7834 8.21667" stroke="#3C64B1" stroke-width="2" stroke-linecap="round" stroke-linejoin="round"/>
<path d="M24.7167 15.2832L30.6001 9.3999" stroke="#3C64B1" stroke-width="2" stroke-linecap="round" stroke-linejoin="round"/>
<path d="M8.21661 31.7833L15.2833 24.7167" stroke="#3C64B1" stroke-width="2" stroke-linecap="round" stroke-linejoin="round"/>
</svg>
