<svg xmlns="http://www.w3.org/2000/svg" height="48" viewBox="0 0 48 48" width="48" class="injected-svg Icon--xsmall v-middle" data-src="https://dashboard-cdn.rebrandly.com/styleguide-assets/icons/ic-link.svg" xmlns:xlink="http://www.w3.org/1999/xlink" fill="#c7c9cb"><path d="m39.5782818 8.99293243c3.3132741 3.61288197 3.229881 9.24102577-.269424 12.74007837l-6.2368455 6.2349669c-.3279597.3270592-.6791731.6140376-1.0416126.8817772.4434271-2.0425168.2846593-4.1876404-.4779069-6.1652263l4.3540848-4.3535749c1.6237609-1.6224702 1.712767-4.2068792.269424-5.9367659-.0849969-.1018051-.1732012-.2020071-.269424-.298201-1.7191819-1.7186641-4.5168618-1.7178624-6.2360437 0l-5.6162081 5.6145164-.6214393.6204505c-1.0544423 1.0549263-1.4593802 2.5138669-1.2204267 3.8822249.1499473.8577288.5524796 1.6809881 1.2124081 2.3439243l.2028699.2549138c.0192446.0248501.0312724.052105.0497151.0761535.8323278 1.1150474.7377087 2.6645705-.2445664 3.6465498l-1.106563 1.1062296c-.7120492-.3671399-1.3816-.8400932-1.9974264-1.4044307-.0986284-.0897809-.202068-.173149-.297489-.2685412-1.1298168-1.1286749-1.9028072-2.480199-2.3229804-3.9134879-.5805446-1.9831972-.4827181-4.1227095.291876-6.0530001.4490401-1.1182539 1.1258076-2.1659657 2.0311044-3.0709898l6.2368455-6.2349669c3.594726-3.59364318 9.4450764-3.5944448 13.0406042 0 .0962229.09539227.1788142.1988007.269424.29739943zm-9.2867095 14.95197657c.5805446 1.9831972.4835199 4.1235111-.291876 6.0530001-.4490401 1.1182539-1.1258076 2.1659656-2.0303025 3.0709898l-6.2376474 6.2349669c-3.594726 3.5944448-9.4450764 3.5952464-13.0406042 0-.09622286-.0953923-.17881416-.1988007-.26942403-.2973994-3.31327408-3.612882-3.22988092-9.2410258.26942403-12.7400784l6.2368455-6.2349669c.3303652-.329464.6847861-.6188473 1.0496312-.8881902-.4426252 2.0417152-.2814519 4.1836324.4819162 6.1596151l-4.3661127 4.3655991c-1.6237609 1.6224701-1.712767 4.2068792-.269424 5.9367658.0849969.1018052.1732012.2020072.269424.2982011 1.7191819 1.718664 4.5168618 1.718664 6.2368456 0l5.6154062-5.6145164.6214393-.6204505c1.0544423-1.0549263 1.4593802-2.5138669 1.2204267-3.8822249-.1499473-.8577288-.5524796-1.6809881-1.2124081-2.3439243l-.2028699-.2549138c-.0192446-.0248501-.0312724-.052105-.0497151-.0761535-.8323278-1.1150474-.7377087-2.6645706.2445664-3.6465498l1.106563-1.1062297c.7120492.36714 1.3816.8400933 1.9974264 1.4044308.0986284.0905825.202068.1731489.2982909.2685412 1.1290149 1.1286749 1.9020053 2.480199 2.3221785 3.9134879z"></path></svg>
