<svg xmlns="http://www.w3.org/2000/svg" width="48px" height="48px" viewBox="0 0 48 48" class="injected-svg Icon--sm v-middle" data-src="https://dashboard-cdn.rebrandly.com/styleguide-assets/icons/ic-delete-permanent.svg" xmlns:xlink="http://www.w3.org/1999/xlink" fill="">
    <g stroke="none" stroke-width="1" fill-rule="evenodd">
        <g transform="translate(-851.000000, -1284.000000)">
            <g transform="translate(810.000000, 1268.000000)">
                <g transform="translate(41.000000, 16.000000)">
                    <path d="M10,10 L19,10 L20,8 L24,8 L28,8 L29,10 L38,10 L38,14 L10,14 L10,10 Z M14,16 L34,16 L34,34.8722296 C34,36.6552671 33.8143488,37.3018396 33.4657346,37.9536914 C33.1171204,38.6055433 32.6055433,39.1171204 31.9536914,39.4657346 C31.3018396,39.8143488 30.6552671,40 28.8722296,40 L19.1277704,40 C17.3447329,40 16.6981604,39.8143488 16.0463086,39.4657346 C15.3944567,39.1171204 14.8828796,38.6055433 14.5342654,37.9536914 C14.1856512,37.3018396 14,36.6552671 14,34.8722296 L14,16 Z M16.92,23.76 L19.74,20.94 L24,25.18 L28.24,20.94 L31.06,23.76 L26.82,28 L31.06,32.24 L28.24,35.06 L24,30.82 L19.76,35.06 L16.94,32.24 L21.18,28 L16.92,23.76 Z" id="shape-735"></path>
                </g>
            </g>
        </g>
    </g>
</svg>
