<svg xmlns="http://www.w3.org/2000/svg" width="48" height="48" viewBox="0 0 48 48" class="injected-svg Icon--md v-middle" data-src="https://dashboard-cdn.rebrandly.com/styleguide-assets/icons/ic-warning.svg" xmlns:xlink="http://www.w3.org/1999/xlink" fill="#f6852f"><g><g><path d="M27.53 7.6l16.32 30.5c1.04 1.96.3 4.4-1.64 5.43-.57.3-1.22.47-1.88.47H7.68c-2.2 0-4-1.8-4-4 0-.66.16-1.3.47-1.9L20.47 7.6c1.04-1.95 3.47-2.7 5.42-1.65.68.38 1.25.95 1.63 1.64zM24 38c1.1 0 2-.9 2-2s-.9-2-2-2-2 .9-2 2 .9 2 2 2zm0-8c1.1 0 2-.9 2-2v-8c0-1.1-.9-2-2-2s-2 .9-2 2v8c0 1.1.9 2 2 2z"></path></g></g></svg>
