<svg width="40" height="40" viewBox="0 0 40 40" fill="none" xmlns="http://www.w3.org/2000/svg">
<path d="M24.5 10.5C24.1946 10.8116 24.0236 11.2304 24.0236 11.6667C24.0236 12.1029 24.1946 12.5218 24.5 12.8333L27.1667 15.5C27.4782 15.8054 27.8971 15.9764 28.3333 15.9764C28.7696 15.9764 29.1884 15.8054 29.5 15.5L35.7833 9.21667C36.6214 11.0687 36.8751 13.1321 36.5107 15.1319C36.1464 17.1318 35.1812 18.9731 33.7438 20.4105C32.3064 21.8479 30.4651 22.8131 28.4652 23.1774C26.4654 23.5418 24.402 23.2881 22.55 22.45L11.0333 33.9667C10.3703 34.6297 9.471 35.0022 8.53332 35.0022C7.59564 35.0022 6.69636 34.6297 6.03332 33.9667C5.37028 33.3036 4.99779 32.4044 4.99779 31.4667C4.99779 30.529 5.37028 29.6297 6.03332 28.9667L17.55 17.45C16.7119 15.598 16.4582 13.5346 16.8226 11.5348C17.1869 9.53491 18.1521 7.6936 19.5895 6.25621C21.0269 4.81882 22.8682 3.85362 24.8681 3.48924C26.8679 3.12487 28.9313 3.37861 30.7833 4.21667L24.5167 10.4833L24.5 10.5Z" stroke="#3C64B1" stroke-width="2" stroke-linecap="round" stroke-linejoin="round"/>
</svg>
