<svg xmlns="http://www.w3.org/2000/svg" width="48" height="48" viewBox="0 0 48 48" class="injected-svg Icon--xsmall v-middle" data-src="https://dashboard-cdn.rebrandly.com/styleguide-assets/icons/ic-tags.svg" xmlns:xlink="http://www.w3.org/1999/xlink" fill="#c7c9cb"><g><g><path d="M36.67 10h-10.7c-.75 0-1.78.43-2.3.95L10.4 24.23c-.53.52-.53 1.37 0 1.9L21.87 37.6c.52.53 1.37.53 1.9 0l13.27-13.27c.52-.52.95-1.55.95-2.28v-10.7c0-.75-.6-1.35-1.33-1.35zM30 21c-1.66 0-3-1.34-3-3s1.34-3 3-3 3 1.34 3 3-1.34 3-3 3z"></path></g></g></svg>
