<svg xmlns="http://www.w3.org/2000/svg" width="48" height="48" viewBox="0 0 48 48" class="injected-svg Icon--sm v-middle" data-src="https://dashboard-cdn.rebrandly.com/styleguide-assets/icons/ic-copy.svg" xmlns:xlink="http://www.w3.org/1999/xlink" fill="#909398"><g><g><path d="M28 8H16c-2.2 0-4 1.8-4 4v20h2c0-11.3 0-17.64 0-19 0-1 2-3 3-3 1.33 0 5 0 11 0V8zm4.8 4H19.2c-1.76 0-3.2 1.6-3.2 3.56v20.88C16 38.4 17.44 40 19.2 40h13.6c1.76 0 3.2-1.6 3.2-3.56V15.56C36 13.6 34.56 12 32.8 12z"></path></g></g></svg>
